<?xml version="1.0" encoding="utf-8"?><!-- Uploaded to: SVG Repo, www.svgrepo.com, Generator: SVG Repo Mixer Tools -->
<svg xmlns="http://www.w3.org/2000/svg" xmlns:xlink="http://www.w3.org/1999/xlink" version="1.1" width="256" height="256" viewBox="0 0 256 256" xml:space="preserve">

<defs>
</defs>
<g style="stroke: none; stroke-width: 0; stroke-dasharray: none; stroke-linecap: butt; stroke-linejoin: miter; stroke-miterlimit: 10; fill: none; fill-rule: nonzero; opacity: 1;" transform="translate(1.4065934065934016 1.4065934065934016) scale(2.81 2.81)" >
	<circle cx="45" cy="45" r="45" style="stroke: none; stroke-width: 1; stroke-dasharray: none; stroke-linecap: butt; stroke-linejoin: miter; stroke-miterlimit: 10; fill: rgb(243,244,245); fill-rule: nonzero; opacity: 1;" transform="  matrix(1 0 0 1 0 0) "/>
	<path d="M 75.073 78.469 l -39.19 -39.742 l 52.056 0.061 L 30.808 2.297 C 12.912 8.243 0 25.108 0 45 c 0 22.85 17.034 41.708 39.095 44.602 l 11.813 0 C 60.135 88.391 68.484 84.394 75.073 78.469 z" style="stroke: none; stroke-width: 1; stroke-dasharray: none; stroke-linecap: butt; stroke-linejoin: miter; stroke-miterlimit: 10; fill: rgb(206,0,0); fill-rule: nonzero; opacity: 1;" transform=" matrix(1 0 0 1 0 0) " stroke-linecap="round" />
	<path d="M 89.452 37.983 L 32.679 1.722 c -1.241 0.353 -2.461 0.753 -3.656 1.208 l 53.796 34.36 L 32.31 37.23 l 41.632 42.218 c 0.763 -0.642 1.501 -1.311 2.219 -2.001 L 39.456 40.224 l 50.297 0.059 C 89.672 39.51 89.571 38.744 89.452 37.983 z" style="stroke: none; stroke-width: 1; stroke-dasharray: none; stroke-linecap: butt; stroke-linejoin: miter; stroke-miterlimit: 10; fill: rgb(0,0,99); fill-rule: nonzero; opacity: 1;" transform=" matrix(1 0 0 1 0 0) " stroke-linecap="round" />
	<path d="M 44.652 62.542 l -5.46 1.808 l 4.272 4.019 l -5.754 -0.37 l 2.371 5.308 l -5.17 -2.487 l 0.106 5.786 l -3.801 -4.229 l -2.173 5.389 l -1.851 -5.326 l -4.121 4.166 l 0.377 -5.612 l -5.44 2.312 l 2.55 -5.042 l -5.936 0.104 l 4.336 -3.707 l -5.523 -2.12 l 5.461 -1.806 l -4.274 -4.019 l 5.754 0.367 l -2.368 -5.305 l 5.17 2.487 l -0.107 -5.789 l 3.801 4.229 l 2.171 -5.386 l 1.854 5.326 l 4.121 -4.168 l -0.379 5.612 l 5.442 -2.31 l -2.55 5.042 l 5.933 -0.104 l -4.336 3.708 L 44.652 62.542 z M 38.093 23.173 L 35.8 24.87 l 1.13 0.934 c 2.744 -2.121 4.697 -4.059 6.223 -7.276 c 0.358 4.294 -3.578 13.932 -13.907 14.039 c -11.055 -0.009 -14.891 -10.236 -14.464 -14.22 c 2.031 3.685 3.27 5.481 6.458 7.399 l 0.975 -0.895 l -2.159 -1.799 l 2.78 -0.723 l -1.495 -2.517 l 2.912 0.212 l -0.366 -2.931 l 2.553 1.494 l 0.799 -2.728 l 1.834 2.197 l 1.718 -2.083 l 0.936 2.831 l 2.386 -1.66 l -0.306 2.879 l 2.86 -0.336 l -1.341 2.661 L 38.093 23.173 L 38.093 23.173 z" style="stroke: none; stroke-width: 1; stroke-dasharray: none; stroke-linecap: butt; stroke-linejoin: miter; stroke-miterlimit: 10; fill: rgb(243,244,245); fill-rule: nonzero; opacity: 1;" transform=" matrix(1 0 0 1 0 0) " stroke-linecap="round" />
</g>
</svg>